<?xml version="1.0" encoding="UTF-8"?>
<svg id="Layer_2" data-name="Layer 2" xmlns="http://www.w3.org/2000/svg" viewBox="0 0 569.69 3502.06">
  <defs>
    <style>
      .cls-1 {
        fill: #2c4762;
        stroke-width: .28px;
      }

      .cls-1, .cls-2 {
        stroke: #fff;
        stroke-miterlimit: 10;
      }

      .cls-2 {
        fill: none;
        stroke-width: 1.65px;
      }

      .cls-3 {
        fill: #a1403f;
      }
    </style>
  </defs>
  <g id="Layer_1-2" data-name="Layer 1">
    <g>
      <rect class="cls-1" x=".3" y=".14" width="569.25" height="3501.77"/>
      <g>
        <g>
          <polygon class="cls-3" points="436.47 3477.88 436.47 3450.97 541.97 3450.97 544.8 3477.83 436.47 3477.88"/>
          <line class="cls-2" x1="542.91" y1="3459.67" x2="436.4" y2="3459.67"/>
          <line class="cls-2" x1="543.59" y1="3469.19" x2="436.4" y2="3469.2"/>
        </g>
        <g>
          <rect class="cls-3" x="329.45" y="3450.97" width="106.91" height="26.91"/>
          <line class="cls-2" x1="436.4" y1="3459.67" x2="329.37" y2="3459.67"/>
          <line class="cls-2" x1="436.14" y1="3469.2" x2="329.37" y2="3469.2"/>
        </g>
        <g>
          <rect class="cls-3" x="222.42" y="3450.97" width="106.91" height="26.91"/>
          <line class="cls-2" x1="329.37" y1="3459.67" x2="222.35" y2="3459.67"/>
          <line class="cls-2" x1="329.11" y1="3469.2" x2="222.34" y2="3469.2"/>
        </g>
        <g>
          <rect class="cls-3" x="115.39" y="3450.97" width="106.91" height="26.91"/>
          <line class="cls-2" x1="222.34" y1="3459.67" x2="115.32" y2="3459.67"/>
          <line class="cls-2" x1="222.09" y1="3469.2" x2="115.31" y2="3469.2"/>
        </g>
        <g>
          <path class="cls-3" d="m.5,3457.29l26.41-6.32h88.36v26.91H26.57c-1.11,0-2.23,0-3.32-.14-2.21-.13-4.36-.69-6.43-1.4-2.06-.75-4.01-1.77-5.82-2.99-1.78-1.26-3.43-2.71-4.85-4.37-2.83-3.32-4.83-7.36-5.65-11.69Z"/>
          <path class="cls-2" d="m115.31,3459.67H26.77c-.36,0-.72.01-1.08-.01-.72,0-1.43-.17-2.12-.38-2.76-.87-4.89-3.42-5.26-6.29"/>
          <path class="cls-2" d="m115.06,3469.2H26.54c-.75,0-1.51,0-2.25-.07-1.5-.07-2.97-.42-4.38-.89-1.41-.49-2.74-1.2-3.98-2.03-1.22-.86-2.33-1.87-3.3-3-1.9-2.29-3.23-5.08-3.7-8.04"/>
        </g>
        <g>
          <path class="cls-3" d="m0,3347.14h26.91v103.83l-26.45,6.09c-.23-1.08-.3-2.18-.4-3.28-.02-.56-.05-1.11-.06-1.66v-1.41s0-3.34,0-3.34v-100.23Z"/>
          <path class="cls-2" d="m18.3,3452.98c-.07-.35-.05-.72-.08-1.08v-104.84"/>
          <path class="cls-2" d="m8.88,3454.83c-.1-.74-.15-1.49-.18-2.24v-1.13s-.01-.96-.01-.96v-103.44"/>
        </g>
        <g>
          <rect class="cls-3" x="0" y="3240.11" width="26.91" height="106.91"/>
          <line class="cls-2" x1="18.22" y1="3347.06" x2="18.22" y2="3240.04"/>
          <line class="cls-2" x1="8.69" y1="3346.81" x2="8.69" y2="3240.04"/>
        </g>
        <g>
          <rect class="cls-3" x="0" y="3133.09" width="26.91" height="106.91"/>
          <line class="cls-2" x1="18.22" y1="3240.04" x2="18.22" y2="3133.01"/>
          <line class="cls-2" x1="8.69" y1="3239.78" x2="8.69" y2="3133.01"/>
        </g>
        <g>
          <rect class="cls-3" x="0" y="3026.06" width="26.91" height="106.91"/>
          <line class="cls-2" x1="18.22" y1="3133.01" x2="18.22" y2="3025.99"/>
          <line class="cls-2" x1="8.69" y1="3132.75" x2="8.69" y2="3025.98"/>
        </g>
        <g>
          <rect class="cls-3" x="0" y="2919.03" width="26.91" height="106.91"/>
          <line class="cls-2" x1="18.22" y1="3025.98" x2="18.22" y2="2918.96"/>
          <line class="cls-2" x1="8.69" y1="3025.73" x2="8.69" y2="2918.95"/>
        </g>
        <g>
          <rect class="cls-3" x="0" y="2812" width="26.91" height="106.91"/>
          <line class="cls-2" x1="18.22" y1="2918.95" x2="18.22" y2="2811.93"/>
          <line class="cls-2" x1="8.69" y1="2918.7" x2="8.69" y2="2811.93"/>
        </g>
        <g>
          <rect class="cls-3" x="0" y="2704.98" width="26.91" height="106.91"/>
          <line class="cls-2" x1="18.22" y1="2811.93" x2="18.22" y2="2704.9"/>
          <line class="cls-2" x1="8.69" y1="2811.67" x2="8.69" y2="2704.9"/>
        </g>
        <g>
          <rect class="cls-3" x="0" y="2597.95" width="26.91" height="106.91"/>
          <line class="cls-2" x1="18.22" y1="2704.9" x2="18.22" y2="2597.88"/>
          <line class="cls-2" x1="8.69" y1="2704.64" x2="8.69" y2="2597.87"/>
        </g>
        <g>
          <rect class="cls-3" x="0" y="2490.92" width="26.91" height="106.91"/>
          <line class="cls-2" x1="18.22" y1="2597.87" x2="18.22" y2="2490.85"/>
          <line class="cls-2" x1="8.69" y1="2597.62" x2="8.69" y2="2490.84"/>
        </g>
        <g>
          <rect class="cls-3" x="0" y="2383.9" width="26.91" height="106.91"/>
          <line class="cls-2" x1="18.22" y1="2490.84" x2="18.22" y2="2383.82"/>
          <line class="cls-2" x1="8.69" y1="2490.59" x2="8.69" y2="2383.82"/>
        </g>
        <g>
          <rect class="cls-3" x="0" y="2276.87" width="26.91" height="106.91"/>
          <line class="cls-2" x1="18.22" y1="2383.82" x2="18.22" y2="2276.79"/>
          <line class="cls-2" x1="8.69" y1="2383.56" x2="8.69" y2="2276.79"/>
        </g>
        <g>
          <rect class="cls-3" x="0" y="2169.84" width="26.91" height="106.91"/>
          <line class="cls-2" x1="18.22" y1="2276.79" x2="18.22" y2="2169.77"/>
          <line class="cls-2" x1="8.69" y1="2276.53" x2="8.69" y2="2169.76"/>
        </g>
        <g>
          <rect class="cls-3" x="0" y="2062.81" width="26.91" height="106.91"/>
          <line class="cls-2" x1="18.22" y1="2169.76" x2="18.22" y2="2062.74"/>
          <line class="cls-2" x1="8.69" y1="2169.51" x2="8.69" y2="2062.74"/>
        </g>
        <g>
          <rect class="cls-3" x="0" y="1955.79" width="26.91" height="106.91"/>
          <line class="cls-2" x1="18.22" y1="2062.74" x2="18.22" y2="1955.71"/>
          <line class="cls-2" x1="8.69" y1="2062.48" x2="8.69" y2="1955.71"/>
        </g>
        <g>
          <rect class="cls-3" x="0" y="1848.76" width="26.91" height="106.91"/>
          <line class="cls-2" x1="18.22" y1="1955.71" x2="18.22" y2="1848.69"/>
          <line class="cls-2" x1="8.69" y1="1955.45" x2="8.69" y2="1848.68"/>
        </g>
        <g>
          <rect class="cls-3" x="0" y="1741.73" width="26.91" height="106.91"/>
          <line class="cls-2" x1="18.22" y1="1848.68" x2="18.22" y2="1741.66"/>
          <line class="cls-2" x1="8.69" y1="1848.43" x2="8.69" y2="1741.65"/>
        </g>
        <g>
          <rect class="cls-3" x="0" y="1634.7" width="26.91" height="106.91"/>
          <line class="cls-2" x1="18.22" y1="1741.65" x2="18.22" y2="1634.63"/>
          <line class="cls-2" x1="8.69" y1="1741.4" x2="8.69" y2="1634.63"/>
        </g>
        <g>
          <rect class="cls-3" x="0" y="1527.68" width="26.91" height="106.91"/>
          <line class="cls-2" x1="18.22" y1="1634.63" x2="18.22" y2="1527.6"/>
          <line class="cls-2" x1="8.69" y1="1634.37" x2="8.69" y2="1527.6"/>
        </g>
        <g>
          <rect class="cls-3" x="0" y="1420.65" width="26.91" height="106.91"/>
          <line class="cls-2" x1="18.22" y1="1527.6" x2="18.22" y2="1420.58"/>
          <line class="cls-2" x1="8.69" y1="1527.34" x2="8.69" y2="1420.57"/>
        </g>
        <g>
          <rect class="cls-3" x="0" y="1313.62" width="26.91" height="106.91"/>
          <line class="cls-2" x1="18.22" y1="1420.57" x2="18.22" y2="1313.55"/>
          <line class="cls-2" x1="8.69" y1="1420.32" x2="8.69" y2="1313.55"/>
        </g>
        <g>
          <rect class="cls-3" x="0" y="1206.6" width="26.91" height="106.91"/>
          <line class="cls-2" x1="18.22" y1="1313.55" x2="18.22" y2="1206.52"/>
          <line class="cls-2" x1="8.69" y1="1313.29" x2="8.69" y2="1206.52"/>
        </g>
        <g>
          <rect class="cls-3" x="0" y="1099.57" width="26.91" height="106.91"/>
          <line class="cls-2" x1="18.22" y1="1206.52" x2="18.22" y2="1099.5"/>
          <line class="cls-2" x1="8.69" y1="1206.26" x2="8.69" y2="1099.49"/>
        </g>
        <g>
          <rect class="cls-3" x="0" y="992.54" width="26.91" height="106.91"/>
          <line class="cls-2" x1="18.22" y1="1099.49" x2="18.22" y2="992.47"/>
          <line class="cls-2" x1="8.69" y1="1099.24" x2="8.69" y2="992.46"/>
        </g>
        <g>
          <rect class="cls-3" x="0" y="885.51" width="26.91" height="106.91"/>
          <line class="cls-2" x1="18.22" y1="992.46" x2="18.22" y2="885.44"/>
          <line class="cls-2" x1="8.69" y1="992.21" x2="8.69" y2="885.44"/>
        </g>
        <g>
          <rect class="cls-3" x="0" y="778.49" width="26.91" height="106.91"/>
          <line class="cls-2" x1="18.22" y1="885.44" x2="18.22" y2="778.41"/>
          <line class="cls-2" x1="8.69" y1="885.18" x2="8.69" y2="778.41"/>
        </g>
        <g>
          <rect class="cls-3" x="0" y="671.46" width="26.91" height="106.91"/>
          <line class="cls-2" x1="18.22" y1="778.41" x2="18.22" y2="671.39"/>
          <line class="cls-2" x1="8.69" y1="778.15" x2="8.69" y2="671.38"/>
        </g>
        <g>
          <rect class="cls-3" x="0" y="564.43" width="26.91" height="106.91"/>
          <line class="cls-2" x1="18.22" y1="671.38" x2="18.22" y2="564.36"/>
          <line class="cls-2" x1="8.69" y1="671.13" x2="8.69" y2="564.35"/>
        </g>
        <g>
          <rect class="cls-3" x="0" y="457.41" width="26.91" height="106.91"/>
          <line class="cls-2" x1="18.22" y1="564.35" x2="18.22" y2="457.33"/>
          <line class="cls-2" x1="8.69" y1="564.1" x2="8.69" y2="457.33"/>
        </g>
        <g>
          <rect class="cls-3" x="0" y="350.38" width="26.91" height="106.91"/>
          <line class="cls-2" x1="18.22" y1="457.33" x2="18.22" y2="350.3"/>
          <line class="cls-2" x1="8.69" y1="457.07" x2="8.69" y2="350.3"/>
        </g>
        <g>
          <rect class="cls-3" x="0" y="243.35" width="26.91" height="106.91"/>
          <line class="cls-2" x1="18.22" y1="350.3" x2="18.22" y2="243.28"/>
          <line class="cls-2" x1="8.69" y1="350.04" x2="8.69" y2="243.27"/>
        </g>
        <g>
          <rect class="cls-3" x="0" y="136.32" width="26.91" height="106.91"/>
          <line class="cls-2" x1="18.22" y1="243.27" x2="18.22" y2="136.25"/>
          <line class="cls-2" x1="8.69" y1="243.02" x2="8.69" y2="136.25"/>
        </g>
        <g>
          <path class="cls-3" d="m23.86,22.67l3.06,26.84v86.7H0V49.18c0-1.11,0-2.23.14-3.32l.17-1.65c.09-.54.2-1.08.31-1.62.47-2.15,1.21-4.23,2.23-6.17,1.98-3.9,5.01-7.24,8.66-9.62,3.64-2.41,7.93-3.83,12.35-4.13Z"/>
          <path class="cls-2" d="m18.22,136.25V49.37c-.05-1.43.13-2.91.8-4.2,1.26-2.6,4.05-4.38,6.95-4.36"/>
          <path class="cls-2" d="m8.69,135.99V49.14c0-.75,0-1.51.07-2.25.03-.75.15-1.49.3-2.22.32-1.46.78-2.89,1.48-4.21.67-1.33,1.52-2.57,2.54-3.67.99-1.11,2.15-2.07,3.41-2.87,2.51-1.62,5.47-2.5,8.47-2.62"/>
        </g>
        <g>
          <polygon class="cls-3" points="132.41 22.6 132.41 49.51 26.91 49.51 24.09 22.65 132.41 22.6"/>
          <line class="cls-2" x1="25.97" y1="40.81" x2="132.48" y2="40.81"/>
          <line class="cls-2" x1="25.29" y1="31.29" x2="132.49" y2="31.28"/>
        </g>
        <g>
          <rect class="cls-3" x="132.52" y="22.6" width="106.91" height="26.91"/>
          <line class="cls-2" x1="132.49" y1="40.81" x2="239.51" y2="40.81"/>
          <line class="cls-2" x1="132.74" y1="31.28" x2="239.51" y2="31.28"/>
        </g>
        <g>
          <rect class="cls-3" x="239.55" y="22.6" width="106.91" height="26.91"/>
          <line class="cls-2" x1="239.51" y1="40.81" x2="346.53" y2="40.81"/>
          <line class="cls-2" x1="239.77" y1="31.28" x2="346.54" y2="31.28"/>
        </g>
        <g>
          <rect class="cls-3" x="346.58" y="22.6" width="106.91" height="26.91"/>
          <line class="cls-2" x1="346.54" y1="40.81" x2="453.56" y2="40.81"/>
          <line class="cls-2" x1="346.8" y1="31.28" x2="453.57" y2="31.28"/>
        </g>
        <g>
          <path class="cls-3" d="m568.38,43.19l-26.41,6.32h-88.36v-26.91h88.71c1.11,0,2.23,0,3.32.14,2.21.13,4.36.69,6.43,1.4,2.06.75,4.01,1.77,5.82,2.99,1.78,1.26,3.43,2.71,4.85,4.37,2.83,3.32,4.83,7.36,5.65,11.69Z"/>
          <path class="cls-2" d="m453.57,40.81h88.55c.36,0,.72-.01,1.08.01.72,0,1.43.17,2.12.38,2.76.87,4.89,3.42,5.26,6.29"/>
          <path class="cls-2" d="m453.82,31.28h88.52c.75,0,1.51,0,2.25.07,1.5.07,2.97.42,4.38.89,1.41.49,2.74,1.2,3.98,2.03,1.22.86,2.33,1.87,3.3,3,1.9,2.29,3.23,5.08,3.7,8.04"/>
        </g>
        <g>
          <path class="cls-3" d="m568.88,153.34h-26.91V49.51l26.45-6.09c.23,1.08.3,2.18.4,3.28.02.55.05,1.11.06,1.66v1.41s0,3.34,0,3.34v100.23Z"/>
          <path class="cls-2" d="m550.58,47.5c.07.35.05.72.08,1.08v104.84"/>
          <path class="cls-2" d="m560,45.65c.1.74.15,1.49.18,2.24v1.13s.01.96.01.96v103.44"/>
        </g>
        <g>
          <rect class="cls-3" x="541.97" y="153.45" width="26.91" height="106.91"/>
          <line class="cls-2" x1="550.66" y1="153.42" x2="550.66" y2="260.44"/>
          <line class="cls-2" x1="560.19" y1="153.67" x2="560.19" y2="260.44"/>
        </g>
        <g>
          <rect class="cls-3" x="541.97" y="260.48" width="26.91" height="106.91"/>
          <line class="cls-2" x1="550.66" y1="260.44" x2="550.66" y2="367.47"/>
          <line class="cls-2" x1="560.19" y1="260.7" x2="560.19" y2="367.47"/>
        </g>
        <g>
          <rect class="cls-3" x="541.97" y="367.51" width="26.91" height="106.91"/>
          <line class="cls-2" x1="550.66" y1="367.47" x2="550.66" y2="474.49"/>
          <line class="cls-2" x1="560.19" y1="367.73" x2="560.19" y2="474.5"/>
        </g>
        <g>
          <rect class="cls-3" x="541.97" y="474.54" width="26.91" height="106.91"/>
          <line class="cls-2" x1="550.66" y1="474.5" x2="550.66" y2="581.52"/>
          <line class="cls-2" x1="560.19" y1="474.75" x2="560.19" y2="581.53"/>
        </g>
        <g>
          <rect class="cls-3" x="541.97" y="581.56" width="26.91" height="106.91"/>
          <line class="cls-2" x1="550.66" y1="581.53" x2="550.66" y2="688.55"/>
          <line class="cls-2" x1="560.19" y1="581.78" x2="560.19" y2="688.55"/>
        </g>
        <g>
          <rect class="cls-3" x="541.97" y="688.59" width="26.91" height="106.91"/>
          <line class="cls-2" x1="550.66" y1="688.55" x2="550.66" y2="795.58"/>
          <line class="cls-2" x1="560.19" y1="688.81" x2="560.19" y2="795.58"/>
        </g>
        <g>
          <rect class="cls-3" x="541.97" y="795.62" width="26.91" height="106.91"/>
          <line class="cls-2" x1="550.66" y1="795.58" x2="550.66" y2="902.6"/>
          <line class="cls-2" x1="560.19" y1="795.84" x2="560.19" y2="902.61"/>
        </g>
        <g>
          <rect class="cls-3" x="541.97" y="902.65" width="26.91" height="106.91"/>
          <line class="cls-2" x1="550.66" y1="902.61" x2="550.66" y2="1009.63"/>
          <line class="cls-2" x1="560.19" y1="902.86" x2="560.19" y2="1009.63"/>
        </g>
        <g>
          <rect class="cls-3" x="541.97" y="1009.67" width="26.91" height="106.91"/>
          <line class="cls-2" x1="550.66" y1="1009.63" x2="550.66" y2="1116.66"/>
          <line class="cls-2" x1="560.19" y1="1009.89" x2="560.19" y2="1116.66"/>
        </g>
        <g>
          <rect class="cls-3" x="541.97" y="1116.7" width="26.91" height="106.91"/>
          <line class="cls-2" x1="550.66" y1="1116.66" x2="550.66" y2="1223.68"/>
          <line class="cls-2" x1="560.19" y1="1116.92" x2="560.19" y2="1223.69"/>
        </g>
        <g>
          <rect class="cls-3" x="541.97" y="1223.73" width="26.91" height="106.91"/>
          <line class="cls-2" x1="550.66" y1="1223.69" x2="550.66" y2="1330.71"/>
          <line class="cls-2" x1="560.19" y1="1223.94" x2="560.19" y2="1330.72"/>
        </g>
        <g>
          <rect class="cls-3" x="541.97" y="1330.75" width="26.91" height="106.91"/>
          <line class="cls-2" x1="550.66" y1="1330.72" x2="550.66" y2="1437.74"/>
          <line class="cls-2" x1="560.19" y1="1330.97" x2="560.19" y2="1437.74"/>
        </g>
        <g>
          <rect class="cls-3" x="541.97" y="1437.78" width="26.91" height="106.91"/>
          <line class="cls-2" x1="550.66" y1="1437.74" x2="550.66" y2="1544.77"/>
          <line class="cls-2" x1="560.19" y1="1438" x2="560.19" y2="1544.77"/>
        </g>
        <g>
          <rect class="cls-3" x="541.97" y="1544.81" width="26.91" height="106.91"/>
          <line class="cls-2" x1="550.66" y1="1544.77" x2="550.66" y2="1651.79"/>
          <line class="cls-2" x1="560.19" y1="1545.03" x2="560.19" y2="1651.8"/>
        </g>
        <g>
          <rect class="cls-3" x="541.97" y="1651.84" width="26.91" height="106.91"/>
          <line class="cls-2" x1="550.66" y1="1651.8" x2="550.66" y2="1758.82"/>
          <line class="cls-2" x1="560.19" y1="1652.05" x2="560.19" y2="1758.82"/>
        </g>
        <g>
          <rect class="cls-3" x="541.97" y="1758.86" width="26.91" height="106.91"/>
          <line class="cls-2" x1="550.66" y1="1758.82" x2="550.66" y2="1865.85"/>
          <line class="cls-2" x1="560.19" y1="1759.08" x2="560.19" y2="1865.85"/>
        </g>
        <g>
          <rect class="cls-3" x="541.97" y="1865.89" width="26.91" height="106.91"/>
          <line class="cls-2" x1="550.66" y1="1865.85" x2="550.66" y2="1972.87"/>
          <line class="cls-2" x1="560.19" y1="1866.11" x2="560.19" y2="1972.88"/>
        </g>
        <g>
          <rect class="cls-3" x="541.97" y="1972.92" width="26.91" height="106.91"/>
          <line class="cls-2" x1="550.66" y1="1972.88" x2="550.66" y2="2079.9"/>
          <line class="cls-2" x1="560.19" y1="1973.13" x2="560.19" y2="2079.91"/>
        </g>
        <g>
          <rect class="cls-3" x="541.97" y="2079.94" width="26.91" height="106.91"/>
          <line class="cls-2" x1="550.66" y1="2079.91" x2="550.66" y2="2186.93"/>
          <line class="cls-2" x1="560.19" y1="2080.16" x2="560.19" y2="2186.93"/>
        </g>
        <g>
          <rect class="cls-3" x="541.97" y="2186.97" width="26.91" height="106.91"/>
          <line class="cls-2" x1="550.66" y1="2186.93" x2="550.66" y2="2293.96"/>
          <line class="cls-2" x1="560.19" y1="2187.19" x2="560.19" y2="2293.96"/>
        </g>
        <g>
          <rect class="cls-3" x="541.97" y="2294" width="26.91" height="106.91"/>
          <line class="cls-2" x1="550.66" y1="2293.96" x2="550.66" y2="2400.98"/>
          <line class="cls-2" x1="560.19" y1="2294.22" x2="560.19" y2="2400.99"/>
        </g>
        <g>
          <rect class="cls-3" x="541.97" y="2401.03" width="26.91" height="106.91"/>
          <line class="cls-2" x1="550.66" y1="2400.99" x2="550.66" y2="2508.01"/>
          <line class="cls-2" x1="560.19" y1="2401.24" x2="560.19" y2="2508.02"/>
        </g>
        <g>
          <rect class="cls-3" x="541.97" y="2508.05" width="26.91" height="106.91"/>
          <line class="cls-2" x1="550.66" y1="2508.02" x2="550.66" y2="2615.04"/>
          <line class="cls-2" x1="560.19" y1="2508.27" x2="560.19" y2="2615.04"/>
        </g>
        <g>
          <rect class="cls-3" x="541.97" y="2615.08" width="26.91" height="106.91"/>
          <line class="cls-2" x1="550.66" y1="2615.04" x2="550.66" y2="2722.07"/>
          <line class="cls-2" x1="560.19" y1="2615.3" x2="560.19" y2="2722.07"/>
        </g>
        <g>
          <rect class="cls-3" x="541.97" y="2722.11" width="26.91" height="106.91"/>
          <line class="cls-2" x1="550.66" y1="2722.07" x2="550.66" y2="2829.09"/>
          <line class="cls-2" x1="560.19" y1="2722.33" x2="560.19" y2="2829.1"/>
        </g>
        <g>
          <rect class="cls-3" x="541.97" y="2829.14" width="26.91" height="106.91"/>
          <line class="cls-2" x1="550.66" y1="2829.1" x2="550.66" y2="2936.12"/>
          <line class="cls-2" x1="560.19" y1="2829.35" x2="560.19" y2="2936.12"/>
        </g>
        <g>
          <rect class="cls-3" x="541.97" y="2936.16" width="26.91" height="106.91"/>
          <line class="cls-2" x1="550.66" y1="2936.12" x2="550.66" y2="3043.15"/>
          <line class="cls-2" x1="560.19" y1="2936.38" x2="560.19" y2="3043.15"/>
        </g>
        <g>
          <rect class="cls-3" x="541.97" y="3043.19" width="26.91" height="106.91"/>
          <line class="cls-2" x1="550.66" y1="3043.15" x2="550.66" y2="3150.17"/>
          <line class="cls-2" x1="560.19" y1="3043.41" x2="560.19" y2="3150.18"/>
        </g>
        <g>
          <rect class="cls-3" x="541.97" y="3150.22" width="26.91" height="106.91"/>
          <line class="cls-2" x1="550.66" y1="3150.18" x2="550.66" y2="3257.2"/>
          <line class="cls-2" x1="560.19" y1="3150.43" x2="560.19" y2="3257.21"/>
        </g>
        <g>
          <rect class="cls-3" x="541.97" y="3257.24" width="26.91" height="106.91"/>
          <line class="cls-2" x1="550.66" y1="3257.21" x2="550.66" y2="3364.23"/>
          <line class="cls-2" x1="560.19" y1="3257.46" x2="560.19" y2="3364.23"/>
        </g>
        <g>
          <path class="cls-3" d="m545.03,3477.81l-3.06-26.84v-86.7h26.91v87.03c0,1.11,0,2.23-.14,3.32l-.17,1.65c-.09.54-.2,1.08-.31,1.62-.47,2.15-1.21,4.23-2.23,6.17-1.98,3.9-5.01,7.24-8.66,9.62-3.64,2.41-7.93,3.83-12.35,4.13Z"/>
          <path class="cls-2" d="m550.66,3364.23v86.88c.05,1.43-.13,2.91-.8,4.2-1.26,2.6-4.05,4.38-6.95,4.36"/>
          <path class="cls-2" d="m560.19,3364.49v86.85c0,.75,0,1.51-.07,2.25-.03.75-.15,1.49-.3,2.22-.32,1.46-.78,2.89-1.48,4.21-.67,1.33-1.52,2.57-2.54,3.67-.99,1.11-2.15,2.07-3.41,2.87-2.51,1.62-5.47,2.5-8.47,2.62"/>
        </g>
      </g>
    </g>
  </g>
</svg>