<?xml version="1.0" encoding="UTF-8"?>
<svg id="Layer_1" data-name="Layer 1" xmlns="http://www.w3.org/2000/svg" viewBox="0 0 568.84 1686.79">
  <defs>
    <style>
      .cls-1 {
        fill: #fff;
      }

      .cls-2 {
        stroke-width: 2.83px;
      }

      .cls-2, .cls-3 {
        stroke: #fff;
      }

      .cls-2, .cls-3, .cls-4 {
        fill: none;
        stroke-miterlimit: 10;
      }

      .cls-3 {
        stroke-width: 2.83px;
      }

      .cls-4 {
        stroke: #a04041;
        stroke-width: 22.68px;
      }
    </style>
  </defs>
  <g>
    <rect class="cls-1" x="11.34" y="11.34" width="546.15" height="1664.1" rx="41.37" ry="41.37"/>
    <g>
      <path class="cls-4" d="m509.06,1675.44H68.98c-5.64-.01-11.29.03-16.93-.03-5.64-.08-11.26-1.35-16.39-3.7-10.28-4.67-18.48-13.69-22.1-24.39-.92-2.67-1.53-5.43-1.89-8.23-.32-2.8-.36-5.63-.34-8.45V56.5c.01-1.41-.02-2.82.02-4.23.09-1.41.1-2.82.26-4.22.24-1.39.38-2.8.7-4.17l.53-2.05c.19-.68.32-1.38.6-2.03,1.78-5.35,4.68-10.33,8.43-14.53,3.75-4.21,8.36-7.65,13.47-10.04,5.11-2.39,10.71-3.71,16.35-3.84l270.82-.05h186.19c5.62.04,11.33-.26,16.84,1.13,11.01,2.55,20.76,9.88,26.39,19.66,2.83,4.88,4.65,10.34,5.28,15.95.16,1.4.17,2.82.26,4.22.04,1.41.01,2.82.02,4.23v1574.14c.02,2.82-.02,5.65-.34,8.45-.69,5.6-2.56,11.04-5.44,15.89-5.72,9.73-15.55,16.96-26.58,19.4"/>
      <path class="cls-2" d="m513.42,1671.62H52.87l-1.94-.1-1.92-.09c-.64-.07-1.27-.19-1.9-.28l-1.9-.29-1.86-.48c-.62-.17-1.25-.31-1.86-.49l-1.8-.67c-9.62-3.56-17.69-11.26-21.62-20.77-.42-1.21-.92-2.4-1.29-3.62-.29-1.25-.7-2.47-.91-3.74l-.29-1.9c-.09-.63-.23-1.26-.23-1.91l-.1-1.92c-.03-.65-.09-1.25-.07-1.99V54.35c.01-.69-.02-1.46.02-2.08l.1-1.92c0-1.29.24-2.55.44-3.82.13-1.28.52-2.51.83-3.75.26-1.26.79-2.44,1.21-3.65,1.86-4.78,4.73-9.17,8.34-12.83,3.62-3.66,8.01-6.54,12.77-8.44,2.39-.94,4.86-1.67,7.39-2.09,1.27-.17,2.53-.47,3.82-.46,1.3-.05,2.5-.17,3.97-.14h460.55c.69,0,1.46-.02,2.07.03l1.92.1c.64.05,1.29.02,1.92.15l1.9.29c.63.1,1.27.16,1.89.36l1.86.48c.62.15,1.25.31,1.84.56,9.74,3.25,18,10.73,22.25,20.08,2.14,4.66,3.3,9.76,3.38,14.9.05.61.03,1.37.03,2.06v1576.9c-.01,1.39.04,2.91-.06,4.13-.1,1.28-.05,2.57-.31,3.83-.22,1.26-.32,2.55-.71,3.78-.33,1.24-.59,2.5-1.1,3.68-1.71,4.83-4.44,9.31-7.94,13.07-3.5,3.77-7.76,6.82-12.46,8.89-4.7,2.08-9.82,3.16-14.96,3.15"/>
      <path class="cls-2" d="m516.13,1679.87H53.46c-.68.02-1.49-.04-2.27-.07l-2.35-.12c-.78-.01-1.56-.16-2.33-.27l-2.32-.36c-.78-.09-1.53-.34-2.29-.52l-2.28-.59c-12.08-3.53-22.35-12.36-27.9-23.59-2.79-5.61-4.41-11.81-4.7-18.06l-.11-2.33V52.81l.23-4.68c.22-1.55.46-3.1.71-4.65.39-1.52.76-3.04,1.2-4.55,1.91-5.98,5.07-11.54,9.19-16.24,4.12-4.71,9.19-8.58,14.84-11.28,5.65-2.71,11.87-4.23,18.13-4.43l271.8-.07h193.13s2.35.11,2.35.11l2.35.13,2.33.35c.77.13,1.55.23,2.32.38l2.28.58c12.15,3.17,22.77,11.56,28.69,22.62,2.97,5.52,4.78,11.66,5.28,17.91l.12,2.35.06,1.17c.02.39,0,.72,0,1.08v1574.78c-.02,2.87.08,5.52-.15,8.78-.02,1.57-.33,3.11-.55,4.66-.18,1.56-.66,3.06-1.03,4.58-1.69,6.04-4.65,11.71-8.6,16.56-3.94,4.87-8.92,8.87-14.48,11.75-5.56,2.88-11.73,4.61-17.98,5.01"/>
    </g>
  </g>
  <line class="cls-3" x1="262.42" y1="345.69" x2="262.42" y2="673.9"/>
  <line class="cls-3" x1="273.86" y1="344.9" x2="273.86" y2="673.1"/>
  <line class="cls-2" x1="225.53" y1="344.3" x2="225.53" y2="673.53"/>
</svg>