<?xml version="1.0" encoding="UTF-8"?>
<svg id="Layer_2" data-name="Layer 2" xmlns="http://www.w3.org/2000/svg" viewBox="0 0 540.5 3454.6">
  <defs>
    <style>
      .cls-1 {
        fill: #a1403f;
      }

      .cls-2 {
        fill: none;
        stroke: #fff;
        stroke-miterlimit: 10;
        stroke-width: 1.61px;
      }
    </style>
  </defs>
  <g id="Layer_1-2" data-name="Layer 1">
    <g>
      <g>
        <polygon class="cls-1" points="410.6 3454.6 410.6 3428.4 514.2 3428.4 516.4 3454.6 410.6 3454.6"/>
        <line class="cls-2" x1="515" y1="3436.9" x2="410.5" y2="3436.9"/>
        <line class="cls-2" x1="515.4" y1="3446.2" x2="410.5" y2="3446.2"/>
      </g>
      <g>
        <rect class="cls-1" x="305.7" y="3428.4" width="104.7" height="26.2"/>
        <line class="cls-2" x1="410.5" y1="3436.9" x2="305.6" y2="3436.9"/>
        <line class="cls-2" x1="410.2" y1="3446.2" x2="305.6" y2="3446.2"/>
      </g>
      <g>
        <rect class="cls-1" x="200.8" y="3428.4" width="104.7" height="26.2"/>
        <line class="cls-2" x1="305.6" y1="3436.9" x2="200.8" y2="3436.9"/>
        <line class="cls-2" x1="305.4" y1="3446.2" x2="200.8" y2="3446.2"/>
      </g>
      <g>
        <rect class="cls-1" x="96" y="3428.4" width="104.7" height="26.2"/>
        <line class="cls-2" x1="200.8" y1="3436.9" x2="95.9" y2="3436.9"/>
        <line class="cls-2" x1="200.5" y1="3446.2" x2="95.9" y2="3446.2"/>
      </g>
      <g>
        <path class="cls-1" d="m0,3414.4h26.2v14h69.7v26.2H24.8c-1.1-.1-2.2-.1-3.2-.3-4.3-.6-8.4-2.3-11.8-5-.9-.6-1.6-1.4-2.4-2.1-.7-.8-1.5-1.6-2.1-2.4-1.3-1.7-2.4-3.6-3.2-5.6-.9-2-1.4-4.1-1.7-6.2-.1-1.1-.2-2.2-.3-3.2v-15.4h-.1Z"/>
        <path class="cls-2" d="m95.9,3436.9H24.6c-1.4-.2-2.8-.7-3.9-1.6-.6-.4-1.1-.9-1.5-1.5s-.8-1.2-1-1.8c-.3-.7-.4-1.4-.5-2.1v-15.6"/>
        <path class="cls-2" d="m95.7,3446.2H25.1c-.7,0-1.5-.1-2.2-.2-2.9-.4-5.7-1.6-8-3.4-1.2-.9-2.2-1.9-3.1-3.1-.9-1.2-1.6-2.5-2.2-3.8-.6-1.4-.9-2.8-1.1-4.3-.1-.7-.1-1.5-.1-2.2v-14.9"/>
      </g>
      <g>
        <rect class="cls-1" y="3309.5" width="26.2" height="104.7"/>
        <line class="cls-2" x1="17.7" y1="3414.3" x2="17.7" y2="3309.5"/>
        <line class="cls-2" x1="8.4" y1="3414.1" x2="8.4" y2="3309.5"/>
      </g>
      <g>
        <rect class="cls-1" y="3204.7" width="26.2" height="104.7"/>
        <line class="cls-2" x1="17.7" y1="3309.5" x2="17.7" y2="3204.6"/>
        <line class="cls-2" x1="8.4" y1="3309.2" x2="8.4" y2="3204.6"/>
      </g>
      <g>
        <rect class="cls-1" y="3099.8" width="26.2" height="104.7"/>
        <line class="cls-2" x1="17.7" y1="3204.6" x2="17.7" y2="3099.7"/>
        <line class="cls-2" x1="8.4" y1="3204.3" x2="8.4" y2="3099.7"/>
      </g>
      <g>
        <rect class="cls-1" y="2994.9" width="26.2" height="104.7"/>
        <line class="cls-2" x1="17.7" y1="3099.7" x2="17.7" y2="2994.9"/>
        <line class="cls-2" x1="8.4" y1="3099.5" x2="8.4" y2="2994.9"/>
      </g>
      <g>
        <rect class="cls-1" y="2890.1" width="26.2" height="104.7"/>
        <line class="cls-2" x1="17.7" y1="2994.9" x2="17.7" y2="2890"/>
        <line class="cls-2" x1="8.4" y1="2994.6" x2="8.4" y2="2890"/>
      </g>
      <g>
        <rect class="cls-1" y="2785.2" width="26.2" height="104.7"/>
        <line class="cls-2" x1="17.7" y1="2890" x2="17.7" y2="2785.2"/>
        <line class="cls-2" x1="8.4" y1="2889.8" x2="8.4" y2="2785.1"/>
      </g>
      <g>
        <rect class="cls-1" y="2680.4" width="26.2" height="104.7"/>
        <line class="cls-2" x1="17.7" y1="2785.1" x2="17.7" y2="2680.3"/>
        <line class="cls-2" x1="8.4" y1="2784.9" x2="8.4" y2="2680.3"/>
      </g>
      <g>
        <rect class="cls-1" y="2575.5" width="26.2" height="104.7"/>
        <line class="cls-2" x1="17.7" y1="2680.3" x2="17.7" y2="2575.4"/>
        <line class="cls-2" x1="8.4" y1="2680" x2="8.4" y2="2575.4"/>
      </g>
      <g>
        <rect class="cls-1" y="2470.6" width="26.2" height="104.7"/>
        <line class="cls-2" x1="17.7" y1="2575.4" x2="17.7" y2="2470.6"/>
        <line class="cls-2" x1="8.4" y1="2575.2" x2="8.4" y2="2470.6"/>
      </g>
      <g>
        <rect class="cls-1" y="2365.8" width="26.2" height="104.7"/>
        <line class="cls-2" x1="17.7" y1="2470.6" x2="17.7" y2="2365.7"/>
        <line class="cls-2" x1="8.4" y1="2470.3" x2="8.4" y2="2365.7"/>
      </g>
      <g>
        <rect class="cls-1" y="2260.9" width="26.2" height="104.7"/>
        <line class="cls-2" x1="17.7" y1="2365.7" x2="17.7" y2="2260.8"/>
        <line class="cls-2" x1="8.4" y1="2365.5" x2="8.4" y2="2260.8"/>
      </g>
      <g>
        <rect class="cls-1" y="2156.1" width="26.2" height="104.7"/>
        <line class="cls-2" x1="17.7" y1="2260.8" x2="17.7" y2="2156"/>
        <line class="cls-2" x1="8.4" y1="2260.6" x2="8.4" y2="2156"/>
      </g>
      <g>
        <rect class="cls-1" y="2051.2" width="26.2" height="104.7"/>
        <line class="cls-2" x1="17.7" y1="2156" x2="17.7" y2="2051.1"/>
        <line class="cls-2" x1="8.4" y1="2155.7" x2="8.4" y2="2051.1"/>
      </g>
      <g>
        <rect class="cls-1" y="1946.3" width="26.2" height="104.7"/>
        <line class="cls-2" x1="17.7" y1="2051.1" x2="17.7" y2="1946.3"/>
        <line class="cls-2" x1="8.4" y1="2050.9" x2="8.4" y2="1946.3"/>
      </g>
      <g>
        <rect class="cls-1" y="1841.5" width="26.2" height="104.7"/>
        <line class="cls-2" x1="17.7" y1="1946.3" x2="17.7" y2="1841.4"/>
        <line class="cls-2" x1="8.4" y1="1946" x2="8.4" y2="1841.4"/>
      </g>
      <g>
        <rect class="cls-1" y="1736.6" width="26.2" height="104.7"/>
        <line class="cls-2" x1="17.7" y1="1841.4" x2="17.7" y2="1736.5"/>
        <line class="cls-2" x1="8.4" y1="1841.1" x2="8.4" y2="1736.5"/>
      </g>
      <g>
        <rect class="cls-1" y="1631.7" width="26.2" height="104.7"/>
        <line class="cls-2" x1="17.7" y1="1736.5" x2="17.7" y2="1631.7"/>
        <line class="cls-2" x1="8.4" y1="1736.3" x2="8.4" y2="1631.7"/>
      </g>
      <g>
        <rect class="cls-1" y="1526.9" width="26.2" height="104.7"/>
        <line class="cls-2" x1="17.7" y1="1631.7" x2="17.7" y2="1526.8"/>
        <line class="cls-2" x1="8.4" y1="1631.4" x2="8.4" y2="1526.8"/>
      </g>
      <g>
        <rect class="cls-1" y="1422" width="26.2" height="104.7"/>
        <line class="cls-2" x1="17.7" y1="1526.8" x2="17.7" y2="1422"/>
        <line class="cls-2" x1="8.4" y1="1526.6" x2="8.4" y2="1421.9"/>
      </g>
      <g>
        <rect class="cls-1" y="1317.2" width="26.2" height="104.7"/>
        <line class="cls-2" x1="17.7" y1="1421.9" x2="17.7" y2="1317.1"/>
        <line class="cls-2" x1="8.4" y1="1421.7" x2="8.4" y2="1317.1"/>
      </g>
      <g>
        <rect class="cls-1" y="1212.3" width="26.2" height="104.7"/>
        <line class="cls-2" x1="17.7" y1="1317.1" x2="17.7" y2="1212.2"/>
        <line class="cls-2" x1="8.4" y1="1316.8" x2="8.4" y2="1212.2"/>
      </g>
      <g>
        <rect class="cls-1" y="1107.4" width="26.2" height="104.7"/>
        <line class="cls-2" x1="17.7" y1="1212.2" x2="17.7" y2="1107.4"/>
        <line class="cls-2" x1="8.4" y1="1212" x2="8.4" y2="1107.4"/>
      </g>
      <g>
        <rect class="cls-1" y="1002.6" width="26.2" height="104.7"/>
        <line class="cls-2" x1="17.7" y1="1107.4" x2="17.7" y2="1002.5"/>
        <line class="cls-2" x1="8.4" y1="1107.1" x2="8.4" y2="1002.5"/>
      </g>
      <g>
        <rect class="cls-1" y="897.7" width="26.2" height="104.7"/>
        <line class="cls-2" x1="17.7" y1="1002.5" x2="17.7" y2="897.6"/>
        <line class="cls-2" x1="8.4" y1="1002.3" x2="8.4" y2="897.6"/>
      </g>
      <g>
        <rect class="cls-1" y="792.9" width="26.2" height="104.7"/>
        <line class="cls-2" x1="17.7" y1="897.6" x2="17.7" y2="792.8"/>
        <line class="cls-2" x1="8.4" y1="897.4" x2="8.4" y2="792.8"/>
      </g>
      <g>
        <rect class="cls-1" y="688" width="26.2" height="104.7"/>
        <line class="cls-2" x1="17.7" y1="792.8" x2="17.7" y2="687.9"/>
        <line class="cls-2" x1="8.4" y1="792.5" x2="8.4" y2="687.9"/>
      </g>
      <g>
        <rect class="cls-1" y="583.1" width="26.2" height="104.7"/>
        <line class="cls-2" x1="17.7" y1="687.9" x2="17.7" y2="583.1"/>
        <line class="cls-2" x1="8.4" y1="687.7" x2="8.4" y2="583.1"/>
      </g>
      <g>
        <rect class="cls-1" y="478.3" width="26.2" height="104.7"/>
        <line class="cls-2" x1="17.7" y1="583.1" x2="17.7" y2="478.2"/>
        <line class="cls-2" x1="8.4" y1="582.8" x2="8.4" y2="478.2"/>
      </g>
      <g>
        <rect class="cls-1" y="373.4" width="26.2" height="104.7"/>
        <line class="cls-2" x1="17.7" y1="478.2" x2="17.7" y2="373.3"/>
        <line class="cls-2" x1="8.4" y1="477.9" x2="8.4" y2="373.3"/>
      </g>
      <g>
        <rect class="cls-1" y="268.6" width="26.2" height="104.7"/>
        <line class="cls-2" x1="17.7" y1="373.3" x2="17.7" y2="268.5"/>
        <line class="cls-2" x1="8.4" y1="373.1" x2="8.4" y2="268.5"/>
      </g>
      <g>
        <rect class="cls-1" y="163.7" width="26.2" height="104.7"/>
        <line class="cls-2" x1="17.7" y1="268.5" x2="17.7" y2="163.6"/>
        <line class="cls-2" x1="8.4" y1="268.2" x2="8.4" y2="163.6"/>
      </g>
      <g>
        <rect class="cls-1" y="58.8" width="26.2" height="104.7"/>
        <line class="cls-2" x1="17.7" y1="163.6" x2="17.7" y2="58.8"/>
        <line class="cls-2" x1="8.4" y1="163.4" x2="8.4" y2="58.8"/>
      </g>
      <g>
        <path class="cls-1" d="m77.4,0v26.2H26.2v32.5H0V25.7c0-2.2.2-4.3.7-6.5.5-2.1,1.3-4.1,2.3-6,2-3.8,5.1-7,8.7-9.3C15.3,1.6,19.6.3,23.9.1l53.5-.1Z"/>
        <path class="cls-2" d="m17.7,58.8V26c0-.7,0-1.4.2-2.1.2-.7.4-1.4.7-2,1.3-2.5,4-4.2,6.9-4.2h52"/>
        <path class="cls-2" d="m8.4,58.5V25.6c0-1.5.1-2.9.5-4.4.3-1.4.9-2.8,1.6-4.1,1.4-2.6,3.5-4.8,6-6.3s5.4-2.3,8.4-2.4h52.7"/>
      </g>
      <g>
        <rect class="cls-1" x="77.6" width="104.7" height="26.2"/>
        <line class="cls-2" x1="77.5" y1="17.8" x2="182.4" y2="17.8"/>
        <line class="cls-2" x1="77.8" y1="8.5" x2="182.4" y2="8.5"/>
      </g>
      <g>
        <rect class="cls-1" x="182.4" width="104.7" height="26.2"/>
        <line class="cls-2" x1="182.4" y1="17.8" x2="287.2" y2="17.8"/>
        <line class="cls-2" x1="182.6" y1="8.5" x2="287.2" y2="8.5"/>
      </g>
      <g>
        <rect class="cls-1" x="287.3" width="104.7" height="26.2"/>
        <line class="cls-2" x1="287.2" y1="17.8" x2="392.1" y2="17.8"/>
        <line class="cls-2" x1="287.5" y1="8.5" x2="392.1" y2="8.5"/>
      </g>
      <g>
        <rect class="cls-1" x="392.1" width="104.7" height="26.2"/>
        <line class="cls-2" x1="392.1" y1="17.8" x2="497" y2="17.8"/>
        <line class="cls-2" x1="392.4" y1="8.5" x2="497" y2="8.5"/>
      </g>
      <g>
        <path class="cls-1" d="m540.5,92.7h-26.2V26.3h-17.2V0h18.8c1.1.1,2.2.1,3.2.3,4.3.7,8.4,2.4,11.7,5,1.7,1.3,3.2,2.8,4.5,4.6,1.3,1.7,2.4,3.6,3.2,5.6.9,2,1.4,4.1,1.7,6.2.1,1.1.2,2.2.2,3.2v67.8h.1Z"/>
        <path class="cls-2" d="m497,17.8h18.9c1.4.2,2.8.7,3.9,1.6.6.4,1.1.9,1.5,1.5s.8,1.2,1,1.8c.3.7.4,1.4.5,2.1v68"/>
        <path class="cls-2" d="m497.2,8.5h18.4c.7,0,1.5.1,2.2.2,1.5.2,2.9.6,4.2,1.2s2.6,1.3,3.7,2.3c2.3,1.8,4.1,4.3,5.1,7,.6,1.4.9,2.8,1,4.3.1.7.1,1.5.1,2.2v67.2"/>
      </g>
      <g>
        <rect class="cls-1" x="514.2" y="92.8" width="26.2" height="104.7"/>
        <line class="cls-2" x1="522.7" y1="92.8" x2="522.7" y2="197.7"/>
        <line class="cls-2" x1="532" y1="93.1" x2="532" y2="197.7"/>
      </g>
      <g>
        <rect class="cls-1" x="514.2" y="197.7" width="26.2" height="104.7"/>
        <line class="cls-2" x1="522.7" y1="197.7" x2="522.7" y2="302.5"/>
        <line class="cls-2" x1="532" y1="197.9" x2="532" y2="302.5"/>
      </g>
      <g>
        <rect class="cls-1" x="514.2" y="302.6" width="26.2" height="104.7"/>
        <line class="cls-2" x1="522.7" y1="302.5" x2="522.7" y2="407.4"/>
        <line class="cls-2" x1="532" y1="302.8" x2="532" y2="407.4"/>
      </g>
      <g>
        <rect class="cls-1" x="514.2" y="407.4" width="26.2" height="104.7"/>
        <line class="cls-2" x1="522.7" y1="407.4" x2="522.7" y2="512.2"/>
        <line class="cls-2" x1="532" y1="407.6" x2="532" y2="512.2"/>
      </g>
      <g>
        <rect class="cls-1" x="514.2" y="512.3" width="26.2" height="104.7"/>
        <line class="cls-2" x1="522.7" y1="512.2" x2="522.7" y2="617.1"/>
        <line class="cls-2" x1="532" y1="512.5" x2="532" y2="617.1"/>
      </g>
      <g>
        <rect class="cls-1" x="514.2" y="617.1" width="26.2" height="104.7"/>
        <line class="cls-2" x1="522.7" y1="617.1" x2="522.7" y2="722"/>
        <line class="cls-2" x1="532" y1="617.4" x2="532" y2="722"/>
      </g>
      <g>
        <rect class="cls-1" x="514.2" y="722" width="26.2" height="104.7"/>
        <line class="cls-2" x1="522.7" y1="722" x2="522.7" y2="826.8"/>
        <line class="cls-2" x1="532" y1="722.2" x2="532" y2="826.8"/>
      </g>
      <g>
        <rect class="cls-1" x="514.2" y="826.9" width="26.2" height="104.7"/>
        <line class="cls-2" x1="522.7" y1="826.8" x2="522.7" y2="931.7"/>
        <line class="cls-2" x1="532" y1="827.1" x2="532" y2="931.7"/>
      </g>
      <g>
        <rect class="cls-1" x="514.2" y="931.7" width="26.2" height="104.7"/>
        <line class="cls-2" x1="522.7" y1="931.7" x2="522.7" y2="1036.5"/>
        <line class="cls-2" x1="532" y1="931.9" x2="532" y2="1036.6"/>
      </g>
      <g>
        <rect class="cls-1" x="514.2" y="1036.6" width="26.2" height="104.7"/>
        <line class="cls-2" x1="522.7" y1="1036.6" x2="522.7" y2="1141.4"/>
        <line class="cls-2" x1="532" y1="1036.8" x2="532" y2="1141.4"/>
      </g>
      <g>
        <rect class="cls-1" x="514.2" y="1141.5" width="26.2" height="104.7"/>
        <line class="cls-2" x1="522.7" y1="1141.4" x2="522.7" y2="1246.3"/>
        <line class="cls-2" x1="532" y1="1141.7" x2="532" y2="1246.3"/>
      </g>
      <g>
        <rect class="cls-1" x="514.2" y="1246.3" width="26.2" height="104.7"/>
        <line class="cls-2" x1="522.7" y1="1246.3" x2="522.7" y2="1351.1"/>
        <line class="cls-2" x1="532" y1="1246.5" x2="532" y2="1351.1"/>
      </g>
      <g>
        <rect class="cls-1" x="514.2" y="1351.2" width="26.2" height="104.7"/>
        <line class="cls-2" x1="522.7" y1="1351.1" x2="522.7" y2="1456"/>
        <line class="cls-2" x1="532" y1="1351.4" x2="532" y2="1456"/>
      </g>
      <g>
        <rect class="cls-1" x="514.2" y="1456" width="26.2" height="104.7"/>
        <line class="cls-2" x1="522.7" y1="1456" x2="522.7" y2="1560.9"/>
        <line class="cls-2" x1="532" y1="1456.2" x2="532" y2="1560.9"/>
      </g>
      <g>
        <rect class="cls-1" x="514.2" y="1560.9" width="26.2" height="104.7"/>
        <line class="cls-2" x1="522.7" y1="1560.9" x2="522.7" y2="1665.7"/>
        <line class="cls-2" x1="532" y1="1561.1" x2="532" y2="1665.7"/>
      </g>
      <g>
        <rect class="cls-1" x="514.2" y="1665.8" width="26.2" height="104.7"/>
        <line class="cls-2" x1="522.7" y1="1665.7" x2="522.7" y2="1770.6"/>
        <line class="cls-2" x1="532" y1="1666" x2="532" y2="1770.6"/>
      </g>
      <g>
        <rect class="cls-1" x="514.2" y="1770.6" width="26.2" height="104.7"/>
        <line class="cls-2" x1="522.7" y1="1770.6" x2="522.7" y2="1875.4"/>
        <line class="cls-2" x1="532" y1="1770.8" x2="532" y2="1875.4"/>
      </g>
      <g>
        <rect class="cls-1" x="514.2" y="1875.5" width="26.2" height="104.7"/>
        <line class="cls-2" x1="522.7" y1="1875.4" x2="522.7" y2="1980.3"/>
        <line class="cls-2" x1="532" y1="1875.7" x2="532" y2="1980.3"/>
      </g>
      <g>
        <rect class="cls-1" x="514.2" y="1980.3" width="26.2" height="104.7"/>
        <line class="cls-2" x1="522.7" y1="1980.3" x2="522.7" y2="2085.2"/>
        <line class="cls-2" x1="532" y1="1980.6" x2="532" y2="2085.2"/>
      </g>
      <g>
        <rect class="cls-1" x="514.2" y="2085.2" width="26.2" height="104.7"/>
        <line class="cls-2" x1="522.7" y1="2085.2" x2="522.7" y2="2190"/>
        <line class="cls-2" x1="532" y1="2085.4" x2="532" y2="2190"/>
      </g>
      <g>
        <rect class="cls-1" x="514.2" y="2190.1" width="26.2" height="104.7"/>
        <line class="cls-2" x1="522.7" y1="2190" x2="522.7" y2="2294.9"/>
        <line class="cls-2" x1="532" y1="2190.3" x2="532" y2="2294.9"/>
      </g>
      <g>
        <rect class="cls-1" x="514.2" y="2294.9" width="26.2" height="104.7"/>
        <line class="cls-2" x1="522.7" y1="2294.9" x2="522.7" y2="2399.7"/>
        <line class="cls-2" x1="532" y1="2295.1" x2="532" y2="2399.8"/>
      </g>
      <g>
        <rect class="cls-1" x="514.2" y="2399.8" width="26.2" height="104.7"/>
        <line class="cls-2" x1="522.7" y1="2399.8" x2="522.7" y2="2504.6"/>
        <line class="cls-2" x1="532" y1="2400" x2="532" y2="2504.6"/>
      </g>
      <g>
        <rect class="cls-1" x="514.2" y="2504.6" width="26.2" height="104.7"/>
        <line class="cls-2" x1="522.7" y1="2504.6" x2="522.7" y2="2609.5"/>
        <line class="cls-2" x1="532" y1="2504.9" x2="532" y2="2609.5"/>
      </g>
      <g>
        <rect class="cls-1" x="514.2" y="2609.5" width="26.2" height="104.7"/>
        <line class="cls-2" x1="522.7" y1="2609.5" x2="522.7" y2="2714.3"/>
        <line class="cls-2" x1="532" y1="2609.7" x2="532" y2="2714.3"/>
      </g>
      <g>
        <rect class="cls-1" x="514.2" y="2714.4" width="26.2" height="104.7"/>
        <line class="cls-2" x1="522.7" y1="2714.3" x2="522.7" y2="2819.2"/>
        <line class="cls-2" x1="532" y1="2714.6" x2="532" y2="2819.2"/>
      </g>
      <g>
        <rect class="cls-1" x="514.2" y="2819.2" width="26.2" height="104.7"/>
        <line class="cls-2" x1="522.7" y1="2819.2" x2="522.7" y2="2924.1"/>
        <line class="cls-2" x1="532" y1="2819.4" x2="532" y2="2924.1"/>
      </g>
      <g>
        <rect class="cls-1" x="514.2" y="2924.1" width="26.2" height="104.7"/>
        <line class="cls-2" x1="522.7" y1="2924.1" x2="522.7" y2="3028.9"/>
        <line class="cls-2" x1="532" y1="2924.3" x2="532" y2="3028.9"/>
      </g>
      <g>
        <rect class="cls-1" x="514.2" y="3029" width="26.2" height="104.7"/>
        <line class="cls-2" x1="522.7" y1="3028.9" x2="522.7" y2="3133.8"/>
        <line class="cls-2" x1="532" y1="3029.2" x2="532" y2="3133.8"/>
      </g>
      <g>
        <rect class="cls-1" x="514.2" y="3133.8" width="26.2" height="104.7"/>
        <line class="cls-2" x1="522.7" y1="3133.8" x2="522.7" y2="3238.6"/>
        <line class="cls-2" x1="532" y1="3134" x2="532" y2="3238.6"/>
      </g>
      <g>
        <rect class="cls-1" x="514.2" y="3238.7" width="26.2" height="104.7"/>
        <line class="cls-2" x1="522.7" y1="3238.6" x2="522.7" y2="3343.5"/>
        <line class="cls-2" x1="532" y1="3238.9" x2="532" y2="3343.5"/>
      </g>
      <g>
        <path class="cls-1" d="m516.6,3454.6l-2.4-26.2v-84.9h26.2v85.4c0,2.2-.2,4.3-.7,6.5-.5,2.1-1.3,4.1-2.3,6-2,3.8-5,7.1-8.7,9.3-3.5,2.3-7.8,3.6-12.1,3.9Z"/>
        <path class="cls-2" d="m522.7,3343.5v85.1c0,.7,0,1.4-.2,2.1-.2.7-.4,1.4-.7,2-1.3,2.5-4,4.2-6.9,4.2"/>
        <path class="cls-2" d="m532,3343.8v85.2c0,1.5-.1,2.9-.4,4.4-.4,1.4-.8,2.8-1.5,4.1-1.4,2.6-3.4,4.8-5.9,6.3-2.5,1.6-5.4,2.4-8.3,2.5"/>
      </g>
    </g>
  </g>
</svg>