<?xml version="1.0" encoding="UTF-8"?>
<svg id="Layer_2" data-name="Layer 2" xmlns="http://www.w3.org/2000/svg" viewBox="0 0 540.47 3454.59">
  <defs>
    <style>
      .cls-1 {
        fill: #a1403f;
      }

      .cls-2 {
        fill: none;
        stroke: #fff;
        stroke-miterlimit: 10;
        stroke-width: 1.61px;
      }
    </style>
  </defs>
  <g id="Layer_1-2" data-name="Layer 1">
    <g>
      <g>
        <polygon class="cls-1" points="410.58 3454.59 410.58 3428.38 514.26 3428.38 516.39 3454.56 410.58 3454.59"/>
        <line class="cls-2" x1="514.97" y1="3436.85" x2="410.51" y2="3436.85"/>
        <line class="cls-2" x1="515.42" y1="3446.13" x2="410.5" y2="3446.13"/>
      </g>
      <g>
        <rect class="cls-1" x="305.72" y="3428.38" width="104.75" height="26.21"/>
        <line class="cls-2" x1="410.5" y1="3436.85" x2="305.65" y2="3436.85"/>
        <line class="cls-2" x1="410.25" y1="3446.13" x2="305.64" y2="3446.13"/>
      </g>
      <g>
        <rect class="cls-1" x="200.86" y="3428.38" width="104.75" height="26.21"/>
        <line class="cls-2" x1="305.64" y1="3436.85" x2="200.79" y2="3436.85"/>
        <line class="cls-2" x1="305.39" y1="3446.13" x2="200.78" y2="3446.13"/>
      </g>
      <g>
        <rect class="cls-1" x="96" y="3428.38" width="104.75" height="26.21"/>
        <line class="cls-2" x1="200.78" y1="3436.85" x2="95.93" y2="3436.85"/>
        <line class="cls-2" x1="200.53" y1="3446.13" x2="95.92" y2="3446.13"/>
      </g>
      <g>
        <path class="cls-1" d="m0,3414.35h26.21v14.03h0s0,0,0,0h0s4.2,0,4.2,0h65.47v26.21H25.61c-.27,0-.55,0-.82-.01-1.09-.06-2.17-.14-3.25-.26-4.28-.64-8.38-2.34-11.77-4.99-.87-.63-1.64-1.38-2.43-2.11-.73-.78-1.48-1.56-2.11-2.43-1.33-1.69-2.4-3.58-3.24-5.55-.86-1.98-1.39-4.09-1.74-6.22-.12-1.08-.24-2.16-.25-3.25-.01-.27-.01-.54-.01-.82v-.7s0-.82,0-.82v-13.09Z"/>
        <path class="cls-2" d="m95.92,3436.85H25.73c-.35,0-.71-.03-1.06-.05-1.4-.17-2.77-.69-3.87-1.57-.56-.43-1.07-.93-1.48-1.5-.44-.55-.77-1.18-1.03-1.84-.28-.65-.41-1.35-.5-2.05-.01-.35-.05-.7-.04-1.06v-14.52"/>
        <path class="cls-2" d="m95.67,3446.13H25.09c-.74-.04-1.47-.08-2.2-.16-2.91-.4-5.71-1.57-8.01-3.38-1.15-.9-2.2-1.94-3.06-3.12-.89-1.16-1.61-2.45-2.15-3.81-.58-1.35-.88-2.8-1.08-4.25-.06-.73-.12-1.47-.12-2.2v-1.85s0-13.08,0-13.08"/>
      </g>
      <g>
        <rect class="cls-1" x="0" y="3309.48" width="26.21" height="104.75"/>
        <line class="cls-2" x1="17.75" y1="3414.27" x2="17.75" y2="3309.41"/>
        <line class="cls-2" x1="8.46" y1="3414.02" x2="8.46" y2="3309.41"/>
      </g>
      <g>
        <rect class="cls-1" x="0" y="3204.62" width="26.21" height="104.75"/>
        <line class="cls-2" x1="17.75" y1="3309.41" x2="17.75" y2="3204.55"/>
        <line class="cls-2" x1="8.46" y1="3309.16" x2="8.46" y2="3204.55"/>
      </g>
      <g>
        <rect class="cls-1" x="0" y="3099.76" width="26.21" height="104.75"/>
        <line class="cls-2" x1="17.75" y1="3204.55" x2="17.75" y2="3099.69"/>
        <line class="cls-2" x1="8.46" y1="3204.3" x2="8.46" y2="3099.68"/>
      </g>
      <g>
        <rect class="cls-1" x="0" y="2994.9" width="26.21" height="104.75"/>
        <line class="cls-2" x1="17.75" y1="3099.68" x2="17.75" y2="2994.83"/>
        <line class="cls-2" x1="8.46" y1="3099.43" x2="8.46" y2="2994.82"/>
      </g>
      <g>
        <rect class="cls-1" x="0" y="2890.04" width="26.21" height="104.75"/>
        <line class="cls-2" x1="17.75" y1="2994.82" x2="17.75" y2="2889.97"/>
        <line class="cls-2" x1="8.46" y1="2994.57" x2="8.46" y2="2889.96"/>
      </g>
      <g>
        <rect class="cls-1" x="0" y="2785.18" width="26.21" height="104.75"/>
        <line class="cls-2" x1="17.75" y1="2889.96" x2="17.75" y2="2785.11"/>
        <line class="cls-2" x1="8.46" y1="2889.71" x2="8.46" y2="2785.1"/>
      </g>
      <g>
        <rect class="cls-1" x="0" y="2680.32" width="26.21" height="104.75"/>
        <line class="cls-2" x1="17.75" y1="2785.1" x2="17.75" y2="2680.24"/>
        <line class="cls-2" x1="8.46" y1="2784.85" x2="8.46" y2="2680.24"/>
      </g>
      <g>
        <rect class="cls-1" x="0" y="2575.45" width="26.21" height="104.75"/>
        <line class="cls-2" x1="17.75" y1="2680.24" x2="17.75" y2="2575.38"/>
        <line class="cls-2" x1="8.46" y1="2679.99" x2="8.46" y2="2575.38"/>
      </g>
      <g>
        <rect class="cls-1" x="0" y="2470.59" width="26.21" height="104.75"/>
        <line class="cls-2" x1="17.75" y1="2575.38" x2="17.75" y2="2470.52"/>
        <line class="cls-2" x1="8.46" y1="2575.13" x2="8.46" y2="2470.52"/>
      </g>
      <g>
        <rect class="cls-1" x="0" y="2365.73" width="26.21" height="104.75"/>
        <line class="cls-2" x1="17.75" y1="2470.52" x2="17.75" y2="2365.66"/>
        <line class="cls-2" x1="8.46" y1="2470.27" x2="8.46" y2="2365.66"/>
      </g>
      <g>
        <rect class="cls-1" x="0" y="2260.87" width="26.21" height="104.75"/>
        <line class="cls-2" x1="17.75" y1="2365.66" x2="17.75" y2="2260.8"/>
        <line class="cls-2" x1="8.46" y1="2365.41" x2="8.46" y2="2260.79"/>
      </g>
      <g>
        <rect class="cls-1" x="0" y="2156.01" width="26.21" height="104.75"/>
        <line class="cls-2" x1="17.75" y1="2260.79" x2="17.75" y2="2155.94"/>
        <line class="cls-2" x1="8.46" y1="2260.54" x2="8.46" y2="2155.93"/>
      </g>
      <g>
        <rect class="cls-1" x="0" y="2051.15" width="26.21" height="104.75"/>
        <line class="cls-2" x1="17.75" y1="2155.93" x2="17.75" y2="2051.08"/>
        <line class="cls-2" x1="8.46" y1="2155.68" x2="8.46" y2="2051.07"/>
      </g>
      <g>
        <rect class="cls-1" x="0" y="1946.29" width="26.21" height="104.75"/>
        <line class="cls-2" x1="17.75" y1="2051.07" x2="17.75" y2="1946.22"/>
        <line class="cls-2" x1="8.46" y1="2050.82" x2="8.46" y2="1946.21"/>
      </g>
      <g>
        <rect class="cls-1" x="0" y="1841.43" width="26.21" height="104.75"/>
        <line class="cls-2" x1="17.75" y1="1946.21" x2="17.75" y2="1841.35"/>
        <line class="cls-2" x1="8.46" y1="1945.96" x2="8.46" y2="1841.35"/>
      </g>
      <g>
        <rect class="cls-1" x="0" y="1736.56" width="26.21" height="104.75"/>
        <line class="cls-2" x1="17.75" y1="1841.35" x2="17.75" y2="1736.49"/>
        <line class="cls-2" x1="8.46" y1="1841.1" x2="8.46" y2="1736.49"/>
      </g>
      <g>
        <rect class="cls-1" x="0" y="1631.7" width="26.21" height="104.75"/>
        <line class="cls-2" x1="17.75" y1="1736.49" x2="17.75" y2="1631.63"/>
        <line class="cls-2" x1="8.46" y1="1736.24" x2="8.46" y2="1631.63"/>
      </g>
      <g>
        <rect class="cls-1" x="0" y="1526.84" width="26.21" height="104.75"/>
        <line class="cls-2" x1="17.75" y1="1631.63" x2="17.75" y2="1526.77"/>
        <line class="cls-2" x1="8.46" y1="1631.38" x2="8.46" y2="1526.77"/>
      </g>
      <g>
        <rect class="cls-1" x="0" y="1421.98" width="26.21" height="104.75"/>
        <line class="cls-2" x1="17.75" y1="1526.77" x2="17.75" y2="1421.91"/>
        <line class="cls-2" x1="8.46" y1="1526.52" x2="8.46" y2="1421.9"/>
      </g>
      <g>
        <rect class="cls-1" x="0" y="1317.12" width="26.21" height="104.75"/>
        <line class="cls-2" x1="17.75" y1="1421.9" x2="17.75" y2="1317.05"/>
        <line class="cls-2" x1="8.46" y1="1421.65" x2="8.46" y2="1317.04"/>
      </g>
      <g>
        <rect class="cls-1" x="0" y="1212.26" width="26.21" height="104.75"/>
        <line class="cls-2" x1="17.75" y1="1317.04" x2="17.75" y2="1212.19"/>
        <line class="cls-2" x1="8.46" y1="1316.79" x2="8.46" y2="1212.18"/>
      </g>
      <g>
        <rect class="cls-1" x="0" y="1107.4" width="26.21" height="104.75"/>
        <line class="cls-2" x1="17.75" y1="1212.18" x2="17.75" y2="1107.32"/>
        <line class="cls-2" x1="8.46" y1="1211.93" x2="8.46" y2="1107.32"/>
      </g>
      <g>
        <rect class="cls-1" x="0" y="1002.54" width="26.21" height="104.75"/>
        <line class="cls-2" x1="17.75" y1="1107.32" x2="17.75" y2="1002.46"/>
        <line class="cls-2" x1="8.46" y1="1107.07" x2="8.46" y2="1002.46"/>
      </g>
      <g>
        <rect class="cls-1" x="0" y="897.67" width="26.21" height="104.75"/>
        <line class="cls-2" x1="17.75" y1="1002.46" x2="17.75" y2="897.6"/>
        <line class="cls-2" x1="8.46" y1="1002.21" x2="8.46" y2="897.6"/>
      </g>
      <g>
        <rect class="cls-1" x="0" y="792.81" width="26.21" height="104.75"/>
        <line class="cls-2" x1="17.75" y1="897.6" x2="17.75" y2="792.74"/>
        <line class="cls-2" x1="8.46" y1="897.35" x2="8.46" y2="792.74"/>
      </g>
      <g>
        <rect class="cls-1" x="0" y="687.95" width="26.21" height="104.75"/>
        <line class="cls-2" x1="17.75" y1="792.74" x2="17.75" y2="687.88"/>
        <line class="cls-2" x1="8.46" y1="792.49" x2="8.46" y2="687.87"/>
      </g>
      <g>
        <rect class="cls-1" x="0" y="583.09" width="26.21" height="104.75"/>
        <line class="cls-2" x1="17.75" y1="687.87" x2="17.75" y2="583.02"/>
        <line class="cls-2" x1="8.46" y1="687.62" x2="8.46" y2="583.01"/>
      </g>
      <g>
        <rect class="cls-1" x="0" y="478.23" width="26.21" height="104.75"/>
        <line class="cls-2" x1="17.75" y1="583.01" x2="17.75" y2="478.16"/>
        <line class="cls-2" x1="8.46" y1="582.76" x2="8.46" y2="478.15"/>
      </g>
      <g>
        <rect class="cls-1" x="0" y="373.37" width="26.21" height="104.75"/>
        <line class="cls-2" x1="17.75" y1="478.15" x2="17.75" y2="373.3"/>
        <line class="cls-2" x1="8.46" y1="477.9" x2="8.46" y2="373.29"/>
      </g>
      <g>
        <rect class="cls-1" x="0" y="268.51" width="26.21" height="104.75"/>
        <line class="cls-2" x1="17.75" y1="373.29" x2="17.75" y2="268.43"/>
        <line class="cls-2" x1="8.46" y1="373.04" x2="8.46" y2="268.43"/>
      </g>
      <g>
        <rect class="cls-1" x="0" y="163.65" width="26.21" height="104.75"/>
        <line class="cls-2" x1="17.75" y1="268.43" x2="17.75" y2="163.57"/>
        <line class="cls-2" x1="8.46" y1="268.18" x2="8.46" y2="163.57"/>
      </g>
      <g>
        <rect class="cls-1" x="0" y="58.78" width="26.21" height="104.75"/>
        <line class="cls-2" x1="17.75" y1="163.57" x2="17.75" y2="58.71"/>
        <line class="cls-2" x1="8.46" y1="163.32" x2="8.46" y2="58.71"/>
      </g>
      <g>
        <path class="cls-1" d="m77.46,0v26.21H26.22v32.45H0V25.66c0-2.18.24-4.35.72-6.45.54-2.09,1.28-4.13,2.32-6.02,2.05-3.77,5.06-7.03,8.71-9.3C15.38,1.57,19.63.27,23.97.05L77.46,0Z"/>
        <path class="cls-2" d="m17.75,58.71V26.04c-.02-.71.03-1.41.16-2.11.16-.69.38-1.36.71-1.99,1.3-2.52,4.03-4.22,6.88-4.2h52.04"/>
        <path class="cls-2" d="m8.46,58.46V25.61c0-1.47.13-2.95.47-4.38.34-1.43.89-2.8,1.58-4.09,1.42-2.56,3.49-4.76,6.01-6.26,2.49-1.55,5.43-2.33,8.36-2.4h52.65"/>
      </g>
      <g>
        <rect class="cls-1" x="77.58" y="0" width="104.75" height="26.21"/>
        <line class="cls-2" x1="77.54" y1="17.75" x2="182.4" y2="17.75"/>
        <line class="cls-2" x1="77.79" y1="8.46" x2="182.4" y2="8.46"/>
      </g>
      <g>
        <rect class="cls-1" x="182.44" y="0" width="104.75" height="26.21"/>
        <line class="cls-2" x1="182.4" y1="17.75" x2="287.26" y2="17.75"/>
        <line class="cls-2" x1="182.65" y1="8.46" x2="287.26" y2="8.46"/>
      </g>
      <g>
        <rect class="cls-1" x="287.3" y="0" width="104.75" height="26.21"/>
        <line class="cls-2" x1="287.26" y1="17.75" x2="392.12" y2="17.75"/>
        <line class="cls-2" x1="287.51" y1="8.46" x2="392.12" y2="8.46"/>
      </g>
      <g>
        <rect class="cls-1" x="392.16" y="0" width="104.75" height="26.21"/>
        <line class="cls-2" x1="392.12" y1="17.75" x2="496.98" y2="17.75"/>
        <line class="cls-2" x1="392.37" y1="8.46" x2="496.98" y2="8.46"/>
      </g>
      <g>
        <path class="cls-1" d="m540.47,92.68h-26.21V26.22h0s0,0,0,0h0s-4.14,0-4.14,0h-13.09V0h17.19c.44,0,1.06-.01,1.58.02,1.09.06,2.17.13,3.24.27,4.28.65,8.37,2.38,11.75,5.04,1.7,1.31,3.23,2.85,4.52,4.56,1.32,1.7,2.38,3.58,3.22,5.57.86,1.98,1.37,4.09,1.71,6.23.12,1.08.23,2.16.24,3.25v2.27s0,13.09,0,13.09v52.37Z"/>
        <path class="cls-2" d="m496.98,17.75h17.76c.35,0,.71.03,1.06.05,1.4.17,2.77.69,3.87,1.57.56.43,1.07.93,1.48,1.5.44.55.77,1.18,1.03,1.84.28.65.4,1.35.5,2.05.01.35.05.7.04,1.06v66.95"/>
        <path class="cls-2" d="m497.24,8.46h17.21s1.11.01,1.11.01c.73.05,1.47.06,2.2.18,1.46.2,2.87.63,4.22,1.19,1.33.61,2.61,1.34,3.75,2.27,2.28,1.83,4.1,4.25,5.14,6.99.55,1.36.87,2.81,1.04,4.27.06.73.11,1.47.11,2.21v1.8s0,13.08,0,13.08v52.31"/>
      </g>
      <g>
        <rect class="cls-1" x="514.26" y="92.79" width="26.21" height="104.75"/>
        <line class="cls-2" x1="522.73" y1="92.76" x2="522.73" y2="197.61"/>
        <line class="cls-2" x1="532.01" y1="93.01" x2="532.01" y2="197.62"/>
      </g>
      <g>
        <rect class="cls-1" x="514.26" y="197.66" width="26.21" height="104.75"/>
        <line class="cls-2" x1="522.73" y1="197.62" x2="522.73" y2="302.48"/>
        <line class="cls-2" x1="532.01" y1="197.87" x2="532.01" y2="302.48"/>
      </g>
      <g>
        <rect class="cls-1" x="514.26" y="302.52" width="26.21" height="104.75"/>
        <line class="cls-2" x1="522.73" y1="302.48" x2="522.73" y2="407.34"/>
        <line class="cls-2" x1="532.01" y1="302.73" x2="532.01" y2="407.34"/>
      </g>
      <g>
        <rect class="cls-1" x="514.26" y="407.38" width="26.21" height="104.75"/>
        <line class="cls-2" x1="522.73" y1="407.34" x2="522.73" y2="512.2"/>
        <line class="cls-2" x1="532.01" y1="407.59" x2="532.01" y2="512.2"/>
      </g>
      <g>
        <rect class="cls-1" x="514.26" y="512.24" width="26.21" height="104.75"/>
        <line class="cls-2" x1="522.73" y1="512.2" x2="522.73" y2="617.06"/>
        <line class="cls-2" x1="532.01" y1="512.45" x2="532.01" y2="617.06"/>
      </g>
      <g>
        <rect class="cls-1" x="514.26" y="617.1" width="26.21" height="104.75"/>
        <line class="cls-2" x1="522.73" y1="617.06" x2="522.73" y2="721.92"/>
        <line class="cls-2" x1="532.01" y1="617.31" x2="532.01" y2="721.92"/>
      </g>
      <g>
        <rect class="cls-1" x="514.26" y="721.96" width="26.21" height="104.75"/>
        <line class="cls-2" x1="522.73" y1="721.92" x2="522.73" y2="826.78"/>
        <line class="cls-2" x1="532.01" y1="722.18" x2="532.01" y2="826.79"/>
      </g>
      <g>
        <rect class="cls-1" x="514.26" y="826.82" width="26.21" height="104.75"/>
        <line class="cls-2" x1="522.73" y1="826.79" x2="522.73" y2="931.64"/>
        <line class="cls-2" x1="532.01" y1="827.04" x2="532.01" y2="931.65"/>
      </g>
      <g>
        <rect class="cls-1" x="514.26" y="931.68" width="26.21" height="104.75"/>
        <line class="cls-2" x1="522.73" y1="931.65" x2="522.73" y2="1036.5"/>
        <line class="cls-2" x1="532.01" y1="931.9" x2="532.01" y2="1036.51"/>
      </g>
      <g>
        <rect class="cls-1" x="514.26" y="1036.55" width="26.21" height="104.75"/>
        <line class="cls-2" x1="522.73" y1="1036.51" x2="522.73" y2="1141.37"/>
        <line class="cls-2" x1="532.01" y1="1036.76" x2="532.01" y2="1141.37"/>
      </g>
      <g>
        <rect class="cls-1" x="514.26" y="1141.41" width="26.21" height="104.75"/>
        <line class="cls-2" x1="522.73" y1="1141.37" x2="522.73" y2="1246.23"/>
        <line class="cls-2" x1="532.01" y1="1141.62" x2="532.01" y2="1246.23"/>
      </g>
      <g>
        <rect class="cls-1" x="514.26" y="1246.27" width="26.21" height="104.75"/>
        <line class="cls-2" x1="522.73" y1="1246.23" x2="522.73" y2="1351.09"/>
        <line class="cls-2" x1="532.01" y1="1246.48" x2="532.01" y2="1351.09"/>
      </g>
      <g>
        <rect class="cls-1" x="514.26" y="1351.13" width="26.21" height="104.75"/>
        <line class="cls-2" x1="522.73" y1="1351.09" x2="522.73" y2="1455.95"/>
        <line class="cls-2" x1="532.01" y1="1351.34" x2="532.01" y2="1455.95"/>
      </g>
      <g>
        <rect class="cls-1" x="514.26" y="1455.99" width="26.21" height="104.75"/>
        <line class="cls-2" x1="522.73" y1="1455.95" x2="522.73" y2="1560.81"/>
        <line class="cls-2" x1="532.01" y1="1456.2" x2="532.01" y2="1560.82"/>
      </g>
      <g>
        <rect class="cls-1" x="514.26" y="1560.85" width="26.21" height="104.75"/>
        <line class="cls-2" x1="522.73" y1="1560.82" x2="522.73" y2="1665.67"/>
        <line class="cls-2" x1="532.01" y1="1561.07" x2="532.01" y2="1665.68"/>
      </g>
      <g>
        <rect class="cls-1" x="514.26" y="1665.71" width="26.21" height="104.75"/>
        <line class="cls-2" x1="522.73" y1="1665.68" x2="522.73" y2="1770.53"/>
        <line class="cls-2" x1="532.01" y1="1665.93" x2="532.01" y2="1770.54"/>
      </g>
      <g>
        <rect class="cls-1" x="514.26" y="1770.58" width="26.21" height="104.75"/>
        <line class="cls-2" x1="522.73" y1="1770.54" x2="522.73" y2="1875.39"/>
        <line class="cls-2" x1="532.01" y1="1770.79" x2="532.01" y2="1875.4"/>
      </g>
      <g>
        <rect class="cls-1" x="514.26" y="1875.44" width="26.21" height="104.75"/>
        <line class="cls-2" x1="522.73" y1="1875.4" x2="522.73" y2="1980.26"/>
        <line class="cls-2" x1="532.01" y1="1875.65" x2="532.01" y2="1980.26"/>
      </g>
      <g>
        <rect class="cls-1" x="514.26" y="1980.3" width="26.21" height="104.75"/>
        <line class="cls-2" x1="522.73" y1="1980.26" x2="522.73" y2="2085.12"/>
        <line class="cls-2" x1="532.01" y1="1980.51" x2="532.01" y2="2085.12"/>
      </g>
      <g>
        <rect class="cls-1" x="514.26" y="2085.16" width="26.21" height="104.75"/>
        <line class="cls-2" x1="522.73" y1="2085.12" x2="522.73" y2="2189.98"/>
        <line class="cls-2" x1="532.01" y1="2085.37" x2="532.01" y2="2189.98"/>
      </g>
      <g>
        <rect class="cls-1" x="514.26" y="2190.02" width="26.21" height="104.75"/>
        <line class="cls-2" x1="522.73" y1="2189.98" x2="522.73" y2="2294.84"/>
        <line class="cls-2" x1="532.01" y1="2190.23" x2="532.01" y2="2294.84"/>
      </g>
      <g>
        <rect class="cls-1" x="514.26" y="2294.88" width="26.21" height="104.75"/>
        <line class="cls-2" x1="522.73" y1="2294.84" x2="522.73" y2="2399.7"/>
        <line class="cls-2" x1="532.01" y1="2295.09" x2="532.01" y2="2399.71"/>
      </g>
      <g>
        <rect class="cls-1" x="514.26" y="2399.74" width="26.21" height="104.75"/>
        <line class="cls-2" x1="522.73" y1="2399.71" x2="522.73" y2="2504.56"/>
        <line class="cls-2" x1="532.01" y1="2399.96" x2="532.01" y2="2504.57"/>
      </g>
      <g>
        <rect class="cls-1" x="514.26" y="2504.6" width="26.21" height="104.75"/>
        <line class="cls-2" x1="522.73" y1="2504.57" x2="522.73" y2="2609.42"/>
        <line class="cls-2" x1="532.01" y1="2504.82" x2="532.01" y2="2609.43"/>
      </g>
      <g>
        <rect class="cls-1" x="514.26" y="2609.47" width="26.21" height="104.75"/>
        <line class="cls-2" x1="522.73" y1="2609.43" x2="522.73" y2="2714.28"/>
        <line class="cls-2" x1="532.01" y1="2609.68" x2="532.01" y2="2714.29"/>
      </g>
      <g>
        <rect class="cls-1" x="514.26" y="2714.33" width="26.21" height="104.75"/>
        <line class="cls-2" x1="522.73" y1="2714.29" x2="522.73" y2="2819.15"/>
        <line class="cls-2" x1="532.01" y1="2714.54" x2="532.01" y2="2819.15"/>
      </g>
      <g>
        <rect class="cls-1" x="514.26" y="2819.19" width="26.21" height="104.75"/>
        <line class="cls-2" x1="522.73" y1="2819.15" x2="522.73" y2="2924.01"/>
        <line class="cls-2" x1="532.01" y1="2819.4" x2="532.01" y2="2924.01"/>
      </g>
      <g>
        <rect class="cls-1" x="514.26" y="2924.05" width="26.21" height="104.75"/>
        <line class="cls-2" x1="522.73" y1="2924.01" x2="522.73" y2="3028.87"/>
        <line class="cls-2" x1="532.01" y1="2924.26" x2="532.01" y2="3028.87"/>
      </g>
      <g>
        <rect class="cls-1" x="514.26" y="3028.91" width="26.21" height="104.75"/>
        <line class="cls-2" x1="522.73" y1="3028.87" x2="522.73" y2="3133.73"/>
        <line class="cls-2" x1="532.01" y1="3029.12" x2="532.01" y2="3133.73"/>
      </g>
      <g>
        <rect class="cls-1" x="514.26" y="3133.77" width="26.21" height="104.75"/>
        <line class="cls-2" x1="522.73" y1="3133.73" x2="522.73" y2="3238.59"/>
        <line class="cls-2" x1="532.01" y1="3133.98" x2="532.01" y2="3238.6"/>
      </g>
      <g>
        <rect class="cls-1" x="514.26" y="3238.63" width="26.21" height="104.75"/>
        <line class="cls-2" x1="522.73" y1="3238.6" x2="522.73" y2="3343.45"/>
        <line class="cls-2" x1="532.01" y1="3238.85" x2="532.01" y2="3343.46"/>
      </g>
      <g>
        <path class="cls-1" d="m516.62,3454.54l-2.36-26.16v-84.89h26.21v85.33c0,2.18-.22,4.35-.69,6.46-.53,2.09-1.26,4.14-2.29,6.03-2.03,3.78-5.02,7.06-8.67,9.34-3.62,2.33-7.86,3.66-12.2,3.89Z"/>
        <path class="cls-2" d="m522.73,3343.46v85.1c.02.71-.03,1.41-.16,2.11-.16.69-.38,1.36-.71,1.99-1.3,2.52-4.03,4.22-6.88,4.2"/>
        <path class="cls-2" d="m532.01,3343.71v85.11c0,1.48-.12,2.95-.43,4.38-.35,1.43-.85,2.81-1.54,4.11-1.39,2.57-3.44,4.8-5.95,6.32-2.48,1.57-5.4,2.39-8.34,2.49"/>
      </g>
    </g>
  </g>
</svg>