<?xml version="1.0" encoding="UTF-8"?>
<svg id="Layer_2" data-name="Layer 2" xmlns="http://www.w3.org/2000/svg" viewBox="0 0 797.97 757.88">
  <defs>
    <style>
      .cls-1, .cls-2 {
        fill: #fff;
      }

      .cls-3 {
        fill: #883e21;
      }

      .cls-4 {
        fill: #d1b02b;
      }

      .cls-5 {
        fill: #798089;
      }

      .cls-2 {
        font-family: Arial-Black, 'Arial Black';
        font-size: 31px;
        font-weight: 800;
      }

      .cls-6 {
        font-family: Arial-BoldMT, Arial;
      }

      .cls-7 {
        font-family: Arial-BoldItalicMT, Arial;
        font-style: italic;
      }

      .cls-8 {
        fill: #344760;
        font-size: 46px;
        font-weight: 700;
      }
    </style>
  </defs>
  <g id="Layer_1-2" data-name="Layer 1">
    <g>
      <rect class="cls-4" width="250.73" height="638.68" rx="12" ry="12"/>
      <rect class="cls-5" x="252.42" y="217.4" width="250.73" height="422.13" rx="12" ry="12"/>
      <rect class="cls-3" x="504.85" y="386.13" width="250.73" height="253.55" rx="12" ry="12"/>
      <g>
        <path class="cls-1" d="m132.13,108.85c.34.66.75,1.36,1.09,2.09,1.14,2.48.77,4.76-.97,6.82-.52.62-1.11,1.2-1.76,1.69-.73.56-1.07,1.24-1.17,2.15-.13,1.16-.34,2.31-.6,3.44-.58,2.49-2.18,4.13-4.66,4.52-3.03.47-6.11.79-9.18.84-5.45.08-10.91.06-16.35-.21-4.77-.24-9.51-.87-14.27-1.34-1.44-.14-2.88-.32-4.32-.49-1.02-.12-1.58-.73-1.72-1.72-.06-.45-.09-.92-.09-1.38-.02-10.63-.02-21.26-.05-31.89,0-.94.22-1.8,1.18-2.01,2.31-.5,3.5-2.12,4.38-4.1,1.64-3.67,3.89-6.94,6.78-9.69,2.66-2.53,5.51-4.87,8.4-7.15,3.33-2.63,5.09-5.98,5.26-10.2.05-1.23.17-2.48.41-3.69.42-2.05,1.75-3.17,3.9-3.48,2.46-.36,3.88.19,4.94,2.15,2.47,4.55,2.67,9.24.59,13.99-1.4,3.21-2.89,6.38-4.27,9.6-1.24,2.91-.48,4.06,2.67,4.04,3.26-.02,6.52-.15,9.78-.18,2.84-.02,5.66.25,8.37,1.2,3.93,1.37,5.83,5.36,4.41,9.31-.33.93-.71,1.86-1.18,2.72-.47.85-.41,1.52.11,2.33.61.95,1.09,1.99,1.52,3.02.81,1.93.41,3.68-.96,5.21-.72.81-1.49,1.6-2.25,2.41Z"/>
        <path class="cls-1" d="m61.73,109.99c0-5.53,0-11.05,0-16.58,0-1.67.56-2.25,2.21-2.25,3.29,0,6.59,0,9.88,0,1.63,0,2.18.56,2.18,2.17,0,11.12,0,22.25,0,33.37,0,1.65-.5,2.17-2.15,2.18-3.33.02-6.66.02-9.99,0-1.6,0-2.13-.56-2.13-2.21,0-5.56,0-11.12,0-16.68Z"/>
      </g>
      <text class="cls-2" transform="translate(144.16 111.28)"><tspan x="0" y="0">1M</tspan></text>
      <g>
        <path class="cls-1" d="m366.02,334.37c.34.66.75,1.36,1.09,2.09,1.14,2.48.77,4.76-.97,6.82-.52.62-1.11,1.2-1.76,1.69-.73.56-1.07,1.24-1.17,2.15-.13,1.16-.34,2.31-.6,3.44-.58,2.49-2.18,4.13-4.66,4.52-3.03.47-6.11.79-9.18.84-5.45.08-10.91.06-16.35-.21-4.77-.24-9.51-.87-14.27-1.34-1.44-.14-2.88-.32-4.32-.49-1.02-.12-1.58-.73-1.72-1.72-.06-.45-.09-.92-.09-1.38-.02-10.63-.02-21.26-.05-31.89,0-.94.22-1.8,1.18-2.01,2.31-.5,3.5-2.12,4.38-4.1,1.64-3.67,3.89-6.94,6.78-9.69,2.66-2.53,5.51-4.87,8.4-7.15,3.33-2.63,5.09-5.98,5.26-10.2.05-1.23.17-2.48.41-3.69.42-2.05,1.75-3.17,3.9-3.48,2.46-.36,3.88.19,4.94,2.15,2.47,4.55,2.67,9.24.59,13.99-1.4,3.21-2.89,6.38-4.27,9.6-1.24,2.91-.48,4.06,2.67,4.04,3.26-.02,6.52-.15,9.78-.18,2.84-.02,5.66.25,8.37,1.2,3.93,1.37,5.83,5.36,4.41,9.31-.33.93-.71,1.86-1.18,2.72-.47.85-.41,1.52.11,2.33.61.95,1.09,1.99,1.52,3.02.81,1.93.41,3.68-.96,5.21-.72.81-1.49,1.6-2.25,2.41Z"/>
        <path class="cls-1" d="m295.62,335.51c0-5.53,0-11.05,0-16.58,0-1.67.56-2.25,2.21-2.25,3.29,0,6.59,0,9.88,0,1.63,0,2.18.56,2.18,2.17,0,11.12,0,22.25,0,33.37,0,1.65-.5,2.17-2.15,2.18-3.33.02-6.66.02-9.99,0-1.6,0-2.13-.56-2.13-2.21,0-5.56,0-11.12,0-16.68Z"/>
      </g>
      <text class="cls-2" transform="translate(378.05 336.8)"><tspan x="0" y="0">543K</tspan></text>
      <g>
        <path class="cls-1" d="m628.39,502.4c.34.66.75,1.36,1.09,2.09,1.14,2.48.77,4.76-.97,6.82-.52.62-1.11,1.2-1.76,1.69-.73.56-1.07,1.24-1.17,2.15-.13,1.16-.34,2.31-.6,3.44-.58,2.49-2.18,4.13-4.66,4.52-3.03.47-6.11.79-9.18.84-5.45.08-10.91.06-16.35-.21-4.77-.24-9.51-.87-14.27-1.34-1.44-.14-2.88-.32-4.32-.49-1.02-.12-1.58-.73-1.72-1.72-.06-.45-.09-.92-.09-1.38-.02-10.63-.02-21.26-.05-31.89,0-.94.22-1.8,1.18-2.01,2.31-.5,3.5-2.12,4.38-4.1,1.64-3.67,3.89-6.94,6.78-9.69,2.66-2.53,5.51-4.87,8.4-7.15,3.33-2.63,5.09-5.98,5.26-10.2.05-1.23.17-2.48.41-3.69.42-2.05,1.75-3.17,3.9-3.48,2.46-.36,3.88.19,4.94,2.15,2.47,4.55,2.67,9.24.59,13.99-1.4,3.21-2.89,6.38-4.27,9.6-1.24,2.91-.48,4.06,2.67,4.04,3.26-.02,6.52-.15,9.78-.18,2.84-.02,5.66.25,8.37,1.2,3.93,1.37,5.83,5.36,4.41,9.31-.33.93-.71,1.86-1.18,2.72-.47.85-.41,1.52.11,2.33.61.95,1.09,1.99,1.52,3.02.81,1.93.41,3.68-.96,5.21-.72.81-1.49,1.6-2.25,2.41Z"/>
        <path class="cls-1" d="m557.99,503.54c0-5.53,0-11.05,0-16.58,0-1.67.56-2.25,2.21-2.25,3.29,0,6.59,0,9.88,0,1.63,0,2.18.56,2.18,2.17,0,11.12,0,22.25,0,33.37,0,1.65-.5,2.17-2.15,2.18-3.33.02-6.66.02-9.99,0-1.6,0-2.13-.56-2.13-2.21,0-5.56,0-11.12,0-16.68Z"/>
      </g>
      <text class="cls-2" transform="translate(640.42 504.83)"><tspan x="0" y="0">17K</tspan></text>
      <text class="cls-8" transform="translate(11.89 682.39)"><tspan class="cls-6" x="0" y="0">must </tspan><tspan class="cls-7" x="122.68" y="0">compete</tspan><tspan class="cls-6" x="311.85" y="0" xml:space="preserve"> for online attention</tspan></text>
    </g>
  </g>
</svg>